<?xml version="1.0" standalone="no"?>
<!DOCTYPE svg PUBLIC "-//W3C//DTD SVG 20010904//EN"
 "http://www.w3.org/TR/2001/REC-SVG-20010904/DTD/svg10.dtd">
<svg version="1.0" xmlns="http://www.w3.org/2000/svg"
 width="400.000000pt" height="400.000000pt" viewBox="0 0 400.000000 400.000000"
 preserveAspectRatio="xMidYMid meet">
<metadata>
Created by potrace 1.11, written by Peter Selinger 2001-2013
</metadata>
<g transform="translate(0.000000,400.000000) scale(0.100000,-0.100000)"
fill="#000000" stroke="none">
<path d="M0 2000 l0 -2000 555 0 555 0 0 335 0 335 110 0 110 0 0 -335 0 -335
110 0 110 0 0 445 0 445 -110 0 -110 0 0 115 0 115 220 0 220 0 0 220 0 220
-110 0 -110 0 0 110 0 110 -110 0 -110 0 0 115 0 115 -110 0 -110 0 0 775 0
775 110 0 110 0 0 110 0 110 110 0 110 0 0 110 0 110 -775 0 -775 0 0 -2000z"/>
<path d="M2880 3890 l0 -110 115 0 115 0 0 -110 0 -110 115 0 115 0 0 -220 0
-220 -115 0 -115 0 0 -780 0 -780 -115 0 -115 0 0 -110 0 -110 -110 0 -110 0
0 -110 0 -110 110 0 110 0 0 -560 0 -560 560 0 560 0 0 2000 0 2000 -560 0
-560 0 0 -110z"/>
<path d="M1770 780 l0 -110 110 0 110 0 0 -110 0 -110 115 0 115 0 0 110 0
110 110 0 110 0 0 110 0 110 -110 0 -110 0 0 -110 0 -110 -115 0 -115 0 0 110
0 110 -110 0 -110 0 0 -110z"/>
</g>
</svg>
